<svg xmlns="http://www.w3.org/2000/svg" xmlns:xlink="http://www.w3.org/1999/xlink" width="70" height="70" viewBox="0 0 70 70">
  <defs>
    <clipPath id="clip-path">
      <rect id="Rectangle_110" data-name="Rectangle 110" width="70" height="70" transform="translate(475 723)" fill="#ff4367"/>
    </clipPath>
  </defs>
  <g id="Mask_Group_38" data-name="Mask Group 38" transform="translate(-475 -723)" clip-path="url(#clip-path)">
    <g id="aim" transform="translate(475 723)">
      <path id="Path_175" data-name="Path 175" d="M30.867,40.561a1.367,1.367,0,0,1,0-2.734h0a1.367,1.367,0,1,1,0,2.734Zm0,0" fill="#ff4367"/>
      <path id="Path_176" data-name="Path 176" d="M69.931,7.8a1.366,1.366,0,0,0-1.1-.924l-4.979-.753-.8-4.968A1.368,1.368,0,0,0,60.741.4L53.506,7.62a1.365,1.365,0,0,0-.391,1.138l.67,5.364L48.2,19.768a25.909,25.909,0,0,0-15.912-6.542V9.642a1.367,1.367,0,1,0-2.734,0v3.584A26.01,26.01,0,0,0,4.961,37.77H1.367a1.367,1.367,0,0,0,0,2.734H4.961A26.009,26.009,0,0,0,29.555,65.048v3.585a1.367,1.367,0,0,0,2.734,0V65.048A26.01,26.01,0,0,0,56.882,40.5h3.594a1.367,1.367,0,1,0,0-2.734H56.882a25.824,25.824,0,0,0-6.709-16.049l5.59-5.63,5.135.947a1.366,1.366,0,0,0,1.214-.376L69.6,9.19A1.364,1.364,0,0,0,69.931,7.8ZM54.142,37.77h-.507a1.367,1.367,0,1,0,0,2.734h.507a23.265,23.265,0,0,1-21.853,21.8v-.5a1.367,1.367,0,1,0-2.734,0v.5A23.265,23.265,0,0,1,7.7,40.5h.507a1.367,1.367,0,0,0,0-2.734H7.7a23.267,23.267,0,0,1,21.853-21.8v.5a1.367,1.367,0,1,0,2.734,0v-.5a23.167,23.167,0,0,1,13.986,5.749l-3.85,3.892a17.761,17.761,0,1,0,1.961,1.941l3.858-3.885a23.07,23.07,0,0,1,5.9,14.107Zm-20.853-.985a1.367,1.367,0,0,0,1.933-.006l1.4-1.411a6.761,6.761,0,0,1,1.142,3.769,6.844,6.844,0,1,1-3.084-5.7l-1.4,1.416A1.366,1.366,0,0,0,33.288,36.785Zm3.341-5.32A9.566,9.566,0,1,0,38.577,33.4l3.876-3.9A15.059,15.059,0,1,1,40.5,27.557Zm24.06-17.247-4.234-.781-.544-4.355,4.871-4.862.534,3.317a1.367,1.367,0,0,0,1.146,1.134l3.287.5Zm0,0" fill="#ff4367"/>
    </g>
  </g>
</svg>
