<svg xmlns="http://www.w3.org/2000/svg" xmlns:xlink="http://www.w3.org/1999/xlink" width="70" height="70" viewBox="0 0 70 70">
  <defs>
    <clipPath id="clip-path">
      <rect id="Rectangle_110" data-name="Rectangle 110" width="70" height="70" transform="translate(475 723)" fill="#ff4367"/>
    </clipPath>
  </defs>
  <g id="Mask_Group_36" data-name="Mask Group 36" transform="translate(-475 -723)" clip-path="url(#clip-path)">
    <g id="kitchen" transform="translate(488.125 723)">
      <path id="Path_167" data-name="Path 167" d="M38.281,0H5.469A5.475,5.475,0,0,0,0,5.469V59.063a5.475,5.475,0,0,0,5.469,5.469H6.836V65.9a4.107,4.107,0,0,0,4.1,4.1H12.3a2.737,2.737,0,0,0,2.734-2.734V64.531H28.711v2.734A2.737,2.737,0,0,0,31.445,70h1.367a4.107,4.107,0,0,0,4.1-4.1V64.531h1.367a5.475,5.475,0,0,0,5.469-5.469V5.469A5.475,5.475,0,0,0,38.281,0ZM12.3,67.266H10.938A1.369,1.369,0,0,1,9.57,65.9V64.531H12.3l0,2.734ZM34.18,65.9a1.369,1.369,0,0,1-1.367,1.367H31.445V64.531H34.18Zm6.836-6.836A2.737,2.737,0,0,1,38.281,61.8H5.469a2.737,2.737,0,0,1-2.734-2.734V26.25H41.016Zm0-35.547H2.734V5.469A2.737,2.737,0,0,1,5.469,2.734H38.281a2.737,2.737,0,0,1,2.734,2.734Zm0,0" fill="#ff4367"/>
      <path id="Path_168" data-name="Path 168" d="M17.8,20.781H8.228a2.738,2.738,0,0,1-2.734-2.734V16.68a4.106,4.106,0,0,1,4.1-4.1h6.836a4.106,4.106,0,0,1,4.1,4.1v1.367A2.738,2.738,0,0,1,17.8,20.781Zm-8.2-5.469A1.368,1.368,0,0,0,8.228,16.68v1.367H17.8V16.68a1.368,1.368,0,0,0-1.367-1.367Zm0,0" fill="#ff4367"/>
      <path id="Path_169" data-name="Path 169" d="M16.431,37.188H9.595a4.106,4.106,0,0,1-4.1-4.1V31.719a2.738,2.738,0,0,1,2.734-2.734H17.8a2.738,2.738,0,0,1,2.734,2.734v1.367A4.106,4.106,0,0,1,16.431,37.188Zm-8.2-5.469v1.367a1.368,1.368,0,0,0,1.367,1.367h6.836A1.368,1.368,0,0,0,17.8,33.086V31.719Zm0,0" fill="#ff4367"/>
      <path id="Path_170" data-name="Path 170" d="M36.914,59.063A1.367,1.367,0,0,1,35.547,57.7V46.758a1.367,1.367,0,0,1,2.734,0V57.7A1.367,1.367,0,0,1,36.914,59.063Zm0,0" fill="#ff4367"/>
      <path id="Path_171" data-name="Path 171" d="M36.917,42.656a1.367,1.367,0,0,1,0-2.734h0a1.367,1.367,0,0,1,0,2.734Zm0,0" fill="#ff4367"/>
    </g>
  </g>
</svg>
