<svg xmlns="http://www.w3.org/2000/svg" xmlns:xlink="http://www.w3.org/1999/xlink" width="70" height="70" viewBox="0 0 70 70">
  <defs>
    <clipPath id="clip-path">
      <rect id="Rectangle_110" data-name="Rectangle 110" width="70" height="70" transform="translate(475 723)" fill="#ff4367"/>
    </clipPath>
  </defs>
  <g id="Mask_Group_39" data-name="Mask Group 39" transform="translate(-475 -723)" clip-path="url(#clip-path)">
    <g id="clock" transform="translate(485.391 723)">
      <path id="Path_177" data-name="Path 177" d="M21.875,26.8a1.367,1.367,0,1,0-1.367-1.367A1.368,1.368,0,0,0,21.875,26.8Zm0,0" fill="#ff4367"/>
      <path id="Path_178" data-name="Path 178" d="M43.059,29.531a21.916,21.916,0,0,0-7.008-11.189C34.125,7.7,33.306,3.174,33.289,3.106A4.1,4.1,0,0,0,29.31,0H14.44a4.093,4.093,0,0,0-4,3.195L7.7,18.344a21.867,21.867,0,0,0,0,33.312c1.926,10.637,2.745,15.169,2.762,15.238A4.1,4.1,0,0,0,14.44,70H29.31a4.093,4.093,0,0,0,4-3.195l2.742-15.148a21.914,21.914,0,0,0,7.008-11.189h2.058a4.106,4.106,0,0,0,4.1-4.1V33.633a4.106,4.106,0,0,0-4.1-4.1ZM30.628,3.734l2.235,12.345a21.581,21.581,0,0,0-4.151-1.863V2.734h.6a1.367,1.367,0,0,1,1.318,1Zm-12.854,5.7h8.2v4.079a21.888,21.888,0,0,0-8.2,0Zm8.2-2.734h-8.2V2.734h8.2ZM13.122,3.734a1.367,1.367,0,0,1,1.318-1h.6V14.216a21.551,21.551,0,0,0-4.151,1.863Zm0,62.532L10.888,53.921a21.581,21.581,0,0,0,4.151,1.863V67.266h-.6a1.367,1.367,0,0,1-1.318-1Zm12.854-5.7h-8.2V56.487a21.888,21.888,0,0,0,8.2,0Zm-8.2,2.734h8.2v3.965h-8.2Zm12.854,2.965a1.367,1.367,0,0,1-1.318,1h-.6V55.784a21.551,21.551,0,0,0,4.151-1.863ZM21.875,54.141A19.141,19.141,0,1,1,41.016,35,19.142,19.142,0,0,1,21.875,54.141ZM46.484,33.633v2.734a1.368,1.368,0,0,1-1.367,1.367H43.58a22.1,22.1,0,0,0,0-5.469h1.537A1.368,1.368,0,0,1,46.484,33.633Zm0,0" fill="#ff4367"/>
      <path id="Path_179" data-name="Path 179" d="M21.875,18.594A16.406,16.406,0,1,0,38.281,35,16.425,16.425,0,0,0,21.875,18.594Zm0,30.078A13.672,13.672,0,1,1,35.547,35,13.687,13.687,0,0,1,21.875,48.672Zm0,0" fill="#ff4367"/>
      <path id="Path_180" data-name="Path 180" d="M28.711,33.633H23.242V30.9a1.367,1.367,0,0,0-2.734,0V35a1.367,1.367,0,0,0,1.367,1.367h6.836a1.367,1.367,0,0,0,0-2.734Zm0,0" fill="#ff4367"/>
    </g>
  </g>
</svg>
