<svg xmlns="http://www.w3.org/2000/svg" xmlns:xlink="http://www.w3.org/1999/xlink" width="70" height="70" viewBox="0 0 70 70">
  <defs>
    <clipPath id="clip-path">
      <rect id="Rectangle_110" data-name="Rectangle 110" width="70" height="70" transform="translate(475 723)" fill="#ff4367"/>
    </clipPath>
  </defs>
  <g id="Mask_Group_34" data-name="Mask Group 34" transform="translate(-475 -723)" clip-path="url(#clip-path)">
    <g id="cellular-phone" transform="translate(475 723)">
      <g id="Group_432" data-name="Group 432">
        <g id="Group_431" data-name="Group 431">
          <path id="Path_158" data-name="Path 158" d="M49.919,0H20.081a5.12,5.12,0,0,0-5.114,5.115V64.885A5.12,5.12,0,0,0,20.081,70H49.919a5.12,5.12,0,0,0,5.114-5.115V5.115A5.12,5.12,0,0,0,49.919,0Zm1.587,64.885a1.59,1.59,0,0,1-1.587,1.589H20.081a1.59,1.59,0,0,1-1.587-1.589V54.922H51.506Zm0-13.489H18.494V13.431H41.965a1.763,1.763,0,0,0,0-3.527H18.494V5.115a1.59,1.59,0,0,1,1.587-1.589H49.919a1.59,1.59,0,0,1,1.587,1.589Z" fill="#ff4367"/>
        </g>
      </g>
      <g id="Group_434" data-name="Group 434">
        <g id="Group_433" data-name="Group 433">
          <path id="Path_159" data-name="Path 159" d="M47.843,9.9h-.661a1.763,1.763,0,0,0,0,3.527h.661a1.763,1.763,0,1,0,0-3.527Z" fill="#ff4367"/>
        </g>
      </g>
      <g id="Group_436" data-name="Group 436">
        <g id="Group_435" data-name="Group 435">
          <path id="Path_160" data-name="Path 160" d="M37.862,58.99H32.14a1.763,1.763,0,0,0,0,3.527h5.722a1.763,1.763,0,1,0,0-3.527Z" fill="#ff4367"/>
        </g>
      </g>
    </g>
  </g>
</svg>
