<svg xmlns="http://www.w3.org/2000/svg" xmlns:xlink="http://www.w3.org/1999/xlink" width="70" height="70" viewBox="0 0 70 70">
  <defs>
    <clipPath id="clip-path">
      <rect id="Rectangle_110" data-name="Rectangle 110" width="70" height="70" transform="translate(475 723)" fill="#ff4367"/>
    </clipPath>
  </defs>
  <g id="Mask_Group_33" data-name="Mask Group 33" transform="translate(-475 -723)" clip-path="url(#clip-path)">
    <g id="coat" transform="translate(481.589 723)">
      <path id="Path_154" data-name="Path 154" d="M31.157,41.836A1.367,1.367,0,1,0,32.524,43.2,1.368,1.368,0,0,0,31.157,41.836Zm0,0" fill="#ff4367"/>
      <path id="Path_155" data-name="Path 155" d="M31.157,50.039a1.367,1.367,0,1,0,1.367,1.367A1.368,1.368,0,0,0,31.157,50.039Zm0,0" fill="#ff4367"/>
      <path id="Path_156" data-name="Path 156" d="M31.157,58.242a1.367,1.367,0,1,0,1.367,1.367A1.368,1.368,0,0,0,31.157,58.242Zm0,0" fill="#ff4367"/>
      <path id="Path_157" data-name="Path 157" d="M56.562,54.943a1.366,1.366,0,0,0,.242-1.027l-6.52-39.221A11.087,11.087,0,0,0,45.639,7.42a4.09,4.09,0,0,0-1.791-2.187L36.284.774A4.062,4.062,0,0,0,33.891,0H22.954a4.057,4.057,0,0,0-2.393.775L13,5.233a4.09,4.09,0,0,0-1.792,2.185,11.094,11.094,0,0,0-4.649,7.276L.019,53.915a1.367,1.367,0,0,0,1.143,1.577l8.064,1.225-1.3,11.765A1.367,1.367,0,0,0,9.282,70H47.563a1.367,1.367,0,0,0,1.359-1.518l-1.3-11.768,8.043-1.222a1.369,1.369,0,0,0,.9-.55ZM42.732,9.733l-4.339,4.34a1.367,1.367,0,0,0,.146,2.06l2.62,1.964a1.368,1.368,0,0,1,.036,2.16L31.079,27.769l6.5-19.646a5.98,5.98,0,0,0,.41-2.171v-1L42.46,7.589a1.367,1.367,0,0,1,.272,2.144Zm-19.779-7H33.891A1.372,1.372,0,0,1,35.258,4.1V5.469H21.586V4.1A1.373,1.373,0,0,1,22.954,2.734ZM34.676,8.2,28.422,27.095,22.169,8.2ZM14.385,7.588l4.467-2.633v1a5.967,5.967,0,0,0,.41,2.171l6.5,19.646L15.649,20.258a1.368,1.368,0,0,1,.036-2.16l2.62-1.965a1.367,1.367,0,0,0,.146-2.06l-4.339-4.34a1.365,1.365,0,0,1,.273-2.144ZM2.944,53,3.4,50.261l6.433.969c0,.03-.006.061-.009.092L9.528,54Zm9.471-.224h7.8a1.367,1.367,0,1,0,0-2.734h-7.5l2.025-18.278a1.367,1.367,0,1,0-2.717-.3L10.136,48.51l-6.286-.947,5.4-32.415a8.344,8.344,0,0,1,2.235-4.4,4.12,4.12,0,0,0,.691.921L15.4,14.891,14.045,15.91a4.1,4.1,0,0,0-.074,6.506l12.267,9.11a6.871,6.871,0,0,0-1.917,4.741v31H10.809ZM27.055,67.265v-31A4.124,4.124,0,0,1,28.7,32.979l14.139-10.54.03-.023A4.1,4.1,0,0,0,42.8,15.91l-1.359-1.019,3.225-3.225a4.1,4.1,0,0,0,.689-.919,8.336,8.336,0,0,1,2.232,4.4L52.975,47.56l-6.267.946L44.82,31.46a1.367,1.367,0,1,0-2.717.3l2.025,18.278h-7.5a1.367,1.367,0,0,0,0,2.734h7.805l1.605,14.492ZM47.317,53.994s-.3-2.736-.3-2.768l6.412-.968L53.88,53Zm0,0" fill="#ff4367"/>
    </g>
  </g>
</svg>
