<svg xmlns="http://www.w3.org/2000/svg" xmlns:xlink="http://www.w3.org/1999/xlink" width="70" height="70" viewBox="0 0 70 70">
  <defs>
    <clipPath id="clip-path">
      <rect id="Rectangle_110" data-name="Rectangle 110" width="70" height="70" transform="translate(475 723)" fill="#ff4367"/>
    </clipPath>
  </defs>
  <g id="Mask_Group_35" data-name="Mask Group 35" transform="translate(-475 -723)" clip-path="url(#clip-path)">
    <g id="camera" transform="translate(475 723)">
      <g id="Group_438" data-name="Group 438">
        <g id="Group_437" data-name="Group 437">
          <path id="Path_161" data-name="Path 161" d="M54.961,22.7a1.367,1.367,0,1,0,1.367,1.367A1.368,1.368,0,0,0,54.961,22.7Z" fill="#ff4367"/>
        </g>
      </g>
      <g id="Group_440" data-name="Group 440">
        <g id="Group_439" data-name="Group 439">
          <path id="Path_162" data-name="Path 162" d="M65.9,17.227H50.884l-4.335-8.67A4.08,4.08,0,0,0,42.88,6.289H27.12a4.079,4.079,0,0,0-3.669,2.268l-4.335,8.67h-2.71V15.859a4.106,4.106,0,0,0-4.1-4.1H9.57a4.106,4.106,0,0,0-4.1,4.1v1.367H4.1a4.106,4.106,0,0,0-4.1,4.1V59.609a4.106,4.106,0,0,0,4.1,4.1H65.9a4.106,4.106,0,0,0,4.1-4.1V21.328A4.106,4.106,0,0,0,65.9,17.227ZM25.9,9.78a1.36,1.36,0,0,1,1.223-.756H42.88A1.36,1.36,0,0,1,44.1,9.78l3.723,7.447H22.173ZM8.2,15.859A1.369,1.369,0,0,1,9.57,14.492H12.3a1.369,1.369,0,0,1,1.367,1.367v1.367H8.2ZM2.734,30.885H20.023a17.8,17.8,0,0,0,0,19.154H2.734ZM35,25.43A15.039,15.039,0,1,1,19.961,40.469,15.047,15.047,0,0,1,35,25.43Zm32.266,34.18A1.369,1.369,0,0,1,65.9,60.977H4.1a1.369,1.369,0,0,1-1.367-1.367V52.773H22.179a17.763,17.763,0,0,0,25.641,0H67.266Zm0-9.57H49.977a17.777,17.777,0,0,0,0-19.141H67.266Zm0-21.875H47.821a17.763,17.763,0,0,0-25.641,0H2.734V21.328A1.369,1.369,0,0,1,4.1,19.961H65.9a1.369,1.369,0,0,1,1.367,1.367Z" fill="#ff4367"/>
        </g>
      </g>
      <g id="Group_442" data-name="Group 442">
        <g id="Group_441" data-name="Group 441">
          <path id="Path_163" data-name="Path 163" d="M39.1,11.758H30.9a1.367,1.367,0,0,0,0,2.734h8.2a1.367,1.367,0,0,0,0-2.734Z" fill="#ff4367"/>
        </g>
      </g>
      <g id="Group_444" data-name="Group 444">
        <g id="Group_443" data-name="Group 443">
          <path id="Path_164" data-name="Path 164" d="M35,28.164a12.3,12.3,0,1,0,12.3,12.3A12.319,12.319,0,0,0,35,28.164Zm0,21.875a9.57,9.57,0,1,1,9.57-9.57A9.581,9.581,0,0,1,35,50.039Z" fill="#ff4367"/>
        </g>
      </g>
      <g id="Group_446" data-name="Group 446">
        <g id="Group_445" data-name="Group 445">
          <path id="Path_165" data-name="Path 165" d="M35,33.633a6.844,6.844,0,0,0-6.836,6.836,1.367,1.367,0,0,0,2.734,0,4.106,4.106,0,0,1,4.1-4.1,1.367,1.367,0,0,0,0-2.734Z" fill="#ff4367"/>
        </g>
      </g>
      <g id="Group_448" data-name="Group 448">
        <g id="Group_447" data-name="Group 447">
          <path id="Path_166" data-name="Path 166" d="M63.164,22.7H60.43a1.367,1.367,0,0,0,0,2.734h2.734a1.367,1.367,0,0,0,0-2.734Z" fill="#ff4367"/>
        </g>
      </g>
    </g>
  </g>
</svg>
