<svg xmlns="http://www.w3.org/2000/svg" xmlns:xlink="http://www.w3.org/1999/xlink" width="70" height="70" viewBox="0 0 70 70">
  <defs>
    <clipPath id="clip-path">
      <rect id="Rectangle_110" data-name="Rectangle 110" width="70" height="70" transform="translate(475 723)" fill="#ff4367"/>
    </clipPath>
  </defs>
  <g id="Mask_Group_37" data-name="Mask Group 37" transform="translate(-475 -723)" clip-path="url(#clip-path)">
    <g id="scooter" transform="translate(475 731.546)">
      <path id="Path_172" data-name="Path 172" d="M29.877,50.1a1.368,1.368,0,1,0,.967.4A1.377,1.377,0,0,0,29.877,50.1Zm0,0" fill="#ff4367"/>
      <path id="Path_173" data-name="Path 173" d="M57.108,27.148,53.922,12.753a3.413,3.413,0,0,0,2.152-1.187,4.077,4.077,0,0,0,2.168.622h2.734a1.367,1.367,0,0,0,1.367-1.367V5.352a1.367,1.367,0,0,0-1.367-1.367H58.242a4.075,4.075,0,0,0-2.224.658,3.406,3.406,0,0,0-2.557-1.155H45.391a3.419,3.419,0,0,0-3.185,2.187H38.965a3.555,3.555,0,0,0,0,7.109H46V15.54a1.367,1.367,0,1,0,2.734,0V12.785h2.393l3.432,15.506-6.5,11.569A4.016,4.016,0,0,1,44.572,41.9H28.357a11.5,11.5,0,0,0-11.4-10.121,11.374,11.374,0,0,0-7.089,2.448l-.008.006A11.418,11.418,0,0,0,5.546,41.9H2.738a18.124,18.124,0,0,1,18.1-17.769h9.7a1.391,1.391,0,0,1,1.389,1.389V37.8a1.367,1.367,0,0,0,1.367,1.367h7.275a8.154,8.154,0,0,0,8.154-8.145l.007-4.542a1.368,1.368,0,0,0-1.366-1.369h0a1.367,1.367,0,0,0-1.367,1.365l-.007,4.543a5.419,5.419,0,0,1-5.42,5.414H34.658V25.521a4.1,4.1,0,0,0-.485-1.939,4.1,4.1,0,0,0-2.044-7.655h-4.99a4.082,4.082,0,0,0-1.367.235V4.17a4.106,4.106,0,0,0-4.1-4.1h-8.82A12.87,12.87,0,0,0,.161,10.885,1.367,1.367,0,0,0,.1,11.3c0,.009,0,.017,0,.025a12.912,12.912,0,0,0-.1,1.6V20.03a4.108,4.108,0,0,0,3.49,4.056l3.028,3.028A20.78,20.78,0,0,0,0,42.236v1.033a1.367,1.367,0,0,0,1.367,1.367H9.051a1.4,1.4,0,0,0-.027.273A7.892,7.892,0,0,0,10.967,50.1h-9.6a1.367,1.367,0,0,0,0,2.734H16.8c.053,0,.105,0,.158,0a7.939,7.939,0,0,0,7.93-7.93,1.4,1.4,0,0,0-.027-.273H44.572A6.755,6.755,0,0,0,50,41.9h1.731a7.906,7.906,0,0,0,1.347,8.2H35.346a1.367,1.367,0,0,0,0,2.734H58.9c.053,0,.105,0,.158,0A7.926,7.926,0,0,0,66.4,41.9h2.237A1.367,1.367,0,0,0,70,40.531,13.409,13.409,0,0,0,57.108,27.148Zm-29.97-8.485h4.99a1.367,1.367,0,1,1,0,2.734h-4.99a1.367,1.367,0,0,1,0-2.734Zm-24.4-5.745c0-.084,0-.168.006-.253H17.7a1.367,1.367,0,1,0,0-2.734H3.185A10.133,10.133,0,0,1,12.849,2.8h8.819A1.368,1.368,0,0,1,23.036,4.17V20.03A1.369,1.369,0,0,1,21.669,21.4H4.1A1.369,1.369,0,0,1,2.734,20.03ZM7.4,24.131h3.129a20.822,20.822,0,0,0-1.9,1.228ZM22.148,44.91A5.2,5.2,0,0,1,17.006,50.1l-.053,0H16.8a5.2,5.2,0,0,1-5.038-5.191,1.4,1.4,0,0,0-.027-.273H22.176a1.4,1.4,0,0,0-.027.273ZM8.3,41.9a8.7,8.7,0,0,1,3.241-5.518l.012-.009a8.664,8.664,0,0,1,5.4-1.86A8.768,8.768,0,0,1,25.6,41.9ZM58.242,6.719h1.367V9.454H58.242a1.367,1.367,0,0,1,0-2.734Zm-20.1,2.511a.821.821,0,0,1,.82-.82h3.012v.961a3.428,3.428,0,0,0,.068.679h-3.08a.821.821,0,0,1-.82-.82Zm9.225.82H45.391a.68.68,0,0,1-.679-.679V6.9a.68.68,0,0,1,.679-.679h8.071a.68.68,0,0,1,.679.679V9.372a.68.68,0,0,1-.679.679ZM64.258,44.91A5.2,5.2,0,0,1,59.115,50.1l-.053,0H58.9a5.194,5.194,0,0,1-4.075-8.2H63.3a5.187,5.187,0,0,1,.962,3.012ZM51.592,39.163l5.213-9.286a10.672,10.672,0,0,1,10.372,9.286Zm0,0" fill="#ff4367"/>
      <path id="Path_174" data-name="Path 174" d="M47.369,22.376a1.367,1.367,0,1,0,0-2.734h0a1.367,1.367,0,1,0,0,2.734Zm0,0" fill="#ff4367"/>
    </g>
  </g>
</svg>
